PathFileType	4	(X/Y/Z)	c:/Users/goper/Files/vsCode/490R/osim_files/C15/C15_SSWS_04.trc
DataRate	CameraRate	NumFrames	NumMarkers	Units                	OrigDataRate	OrigDataStartFrame	OrigNumFrames
250.00	250.00	4	36	mm	250.0	2149	2455
                Frame#	Time	LPSIS			LASIS			LTH1			LTH2			LTH3			LTH4			LLFE			LMFE			LSH1			LSH2			LSH3			LSH4			LLMAL			LMMAL			LCAL			LMTP5			LTOE			LMTP1			RPSIS			RASIS			RTH1			RTH2			RTH3			RTH4			RLFE			RMFE			RSH1			RSH2			RSH3			RSH4			RLMAL			RMMAL			RCAL			RMTP1			RTOE			RMTP5		
		X1	Y1	Z1	X2	Y2	Z2	X3	Y3	Z3	X4	Y4	Z4	X5	Y5	Z5	X6	Y6	Z6	X7	Y7	Z7	X8	Y8	Z8	X9	Y9	Z9	X10	Y10	Z10	X11	Y11	Z11	X12	Y12	Z12	X13	Y13	Z13	X14	Y14	Z14	X15	Y15	Z15	X16	Y16	Z16	X17	Y17	Z17	X18	Y18	Z18	X19	Y19	Z19	X20	Y20	Z20	X21	Y21	Z21	X22	Y22	Z22	X23	Y23	Z23	X24	Y24	Z24	X25	Y25	Z25	X26	Y26	Z26	X27	Y27	Z27	X28	Y28	Z28	X29	Y29	Z29	X30	Y30	Z30	X31	Y31	Z31	X32	Y32	Z32	X33	Y33	Z33	X34	Y34	Z34	X35	Y35	Z35	X36	Y36	Z36

2149	8.59200	0.00000	0.00000	0.00000	-3649.25488	993.66003	277.54785	0.00000	0.00000	0.00000	0.00000	0.00000	0.00000	-3707.66772	628.85931	347.27521	-3723.94116	587.49738	335.35550	-3716.44067	500.13147	300.74570	-3734.94043	495.76804	178.94090	0.00000	0.00000	0.00000	0.00000	0.00000	0.00000	-3747.25439	394.28903	308.04044	-3753.51050	349.28653	310.33527	0.00000	0.00000	0.00000	0.00000	0.00000	0.00000	0.00000	0.00000	0.00000	-753.04913	734.88141	2444.91235	0.00000	0.00000	0.00000	0.00000	0.00000	0.00000	0.00000	0.00000	0.00000	-3607.61646	994.71497	32.79887	-3496.41724	635.44348	-1.45303	0.00000	0.00000	0.00000	-3554.06616	623.74695	8.18714	-3540.84253	578.15918	14.20766	0.00000	0.00000	0.00000	0.00000	0.00000	0.00000	-3374.43188	424.95752	22.65888	0.00000	0.00000	0.00000	-3418.55420	387.05859	26.11347	-3396.18848	354.13254	22.95709	-3277.47095	124.12543	102.91798	-3316.18945	141.47505	188.88382	-3208.30029	106.09296	152.81367	-3406.51636	53.33279	186.49146	-3436.19897	68.03285	131.34810	-3373.35693	46.88951	68.37386
2150	8.59600	0.00000	0.00000	0.00000	-3653.96289	993.22369	277.63718	0.00000	0.00000	0.00000	0.00000	0.00000	0.00000	-3713.53418	629.09564	346.91959	-3729.16382	587.28857	334.52881	-3721.35840	499.90979	300.04803	-3739.49316	495.72888	178.35347	0.00000	0.00000	0.00000	0.00000	0.00000	0.00000	-3751.20337	393.59143	307.14850	-3756.89551	348.49567	309.37631	0.00000	0.00000	0.00000	-3366.28125	407.27502	146.74562	0.00000	0.00000	0.00000	-753.01050	734.86298	2444.94360	0.00000	0.00000	0.00000	0.00000	0.00000	0.00000	0.00000	0.00000	0.00000	-3612.17261	994.27490	32.87389	-3500.52539	635.04529	-1.43005	0.00000	0.00000	0.00000	-3558.38306	623.35681	8.04446	-3544.99927	577.70813	14.04721	0.00000	0.00000	0.00000	-3359.70581	486.81567	138.98366	-3378.25830	424.77127	22.45855	0.00000	0.00000	0.00000	-3421.80981	387.00015	25.95771	-3399.15967	354.30402	22.72533	-3278.50342	125.39520	102.54440	-3317.79419	142.30780	188.88026	-3209.26807	107.95385	152.58136	-3406.69385	53.43123	186.37045	-3436.24243	68.03333	131.27809	-3373.40576	46.89754	68.34097
2151	8.60000	0.00000	0.00000	0.00000	-3658.64307	992.77429	277.67947	0.00000	0.00000	0.00000	0.00000	0.00000	0.00000	-3718.66260	628.85034	346.20026	-3733.68237	587.15784	333.48227	-3726.16138	499.60535	299.37677	-3744.00488	495.67688	177.84789	0.00000	0.00000	0.00000	0.00000	0.00000	0.00000	-3755.05298	392.91483	306.31732	-3760.29175	347.76837	308.51260	0.00000	0.00000	0.00000	0.00000	0.00000	0.00000	0.00000	0.00000	0.00000	-753.01605	734.83795	2444.94336	0.00000	0.00000	0.00000	0.00000	0.00000	0.00000	0.00000	0.00000	0.00000	-3616.76172	993.84717	32.97291	-3504.74854	634.60925	-1.44672	0.00000	0.00000	0.00000	-3562.58765	622.85248	7.98549	-3549.15723	577.21869	13.85790	0.00000	0.00000	0.00000	0.00000	0.00000	0.00000	-3382.11084	424.59039	22.15729	0.00000	0.00000	0.00000	-3425.20337	386.94153	25.75266	-3402.34253	354.63348	22.58814	-3279.55249	126.66621	102.14597	-3318.16357	143.45190	188.20435	-3209.86597	109.79404	152.28847	-3406.96509	53.59212	186.17151	-3436.26221	67.98588	131.21318	-3373.46753	46.91940	68.31985
2152	8.60400	0.00000	0.00000	0.00000	-3663.45142	992.40125	277.78058	0.00000	0.00000	0.00000	0.00000	0.00000	0.00000	-3724.00269	628.67682	345.48996	-3739.72485	586.96252	332.70886	-3731.02954	499.34955	298.69876	-3748.44971	495.57675	177.45529	0.00000	0.00000	0.00000	0.00000	0.00000	0.00000	-3758.82349	392.29269	305.61450	0.00000	0.00000	0.00000	0.00000	0.00000	0.00000	-3375.05835	406.19583	146.22588	0.00000	0.00000	0.00000	-753.01807	734.86523	2444.94849	0.00000	0.00000	0.00000	0.00000	0.00000	0.00000	0.00000	0.00000	0.00000	-3621.37402	993.40106	33.04449	-3509.09985	634.22760	-1.44008	0.00000	0.00000	0.00000	-3566.89233	622.38562	7.82327	-3553.44116	576.72772	13.64947	0.00000	0.00000	0.00000	-3367.95166	486.53217	138.29509	-3386.03394	424.32559	21.91297	0.00000	0.00000	0.00000	-3428.61011	386.88644	25.53857	-3405.51636	354.83478	22.33105	-3280.61377	127.91891	101.78226	-3320.00659	144.35866	188.26364	-3210.83252	111.78591	152.05702	0.00000	0.00000	0.00000	-3436.28369	67.95877	131.14000	-3373.53931	46.91257	68.27621
